#!OML:ASF E:\Steps\Project 1\Capture day 1\Session 2\Subject.ASF
:FULLY-SPECIFIED
:DEGREES
427
root 11.6154 16.3276 12.1486 30.12 -180.227 359.694
lowerback -24.0541 -1.62822 -6.31985
upperback -3.05013 0.55315 -2.01114
thorax 10.0493 0.401545 1.62087
lowerneck 0.167231 0.058171 -3.32571
upperneck 8.83001 -0.774904 6.72975
head 2.86341 -0.46709 2.772
rclavicle 1.07344e-014 -3.49861e-014
rhumerus -52.2458 -45.1915 -50.9473
rradius 10.3695
rwrist 46.8107
rhand -10.5725 -51.6704
rfingers 7.12502
rthumb 15.4323 -81.0743
lclavicle 1.07344e-014 -3.49861e-014
lhumerus -39.2153 22.0426 65.1722
lradius 10.06
lwrist -25.2721
lhand -20.7529 -13.6672
lfingers 7.12502
lthumb 5.61291 16.2385
rfemur -39.5559 13.5422 15.2328
rtibia 14.9019
rfoot -16.8031 -7.17816
rtoes -24.2164
lfemur -36.8763 -10.7391 -16.0307
ltibia 22.4661
lfoot 165.362 195.083
ltoes -45.4405
428
root 11.6094 16.3289 12.1434 30.1631 -180.148 359.693
lowerback -24.3693 -1.67637 -6.39892
upperback -2.93944 0.526373 -1.93304
thorax 10.3428 0.369591 1.74412
lowerneck 0.223696 0.0789124 -3.37415
upperneck 8.80281 -0.745163 6.73463
head 2.84252 -0.454719 2.78254
rclavicle 5.56597e-015 -2.78299e-014
rhumerus -51.6997 -45.1165 -51.4967
rradius 10.4456
rwrist 46.5668
rhand -10.7346 -51.5759
rfingers 7.12502
rthumb 15.2761 -80.9918
lclavicle 5.56597e-015 -2.78299e-014
lhumerus -38.8633 22.0144 65.768
lradius 10.1923
lwrist -24.6833
lhand -21.0076 -14.0082
lfingers 7.12502
lthumb 5.36698 15.9038
rfemur -39.5412 13.4114 15.2648
rtibia 14.8461
rfoot -16.7687 -7.15743
rtoes -24.3413
lfemur -36.9149 -10.7119 -16.0533
ltibia 22.4807
lfoot 165.489 195.107
ltoes -46.1306
429
root 11.6023 16.3316 12.1379 30.1502 -180.039 359.661
lowerback -24.5305 -0.748281 -6.89272
upperback -2.86565 0.307698 -1.97087
thorax 10.4513 -0.429346 1.78876
lowerneck 0.341053 0.0818092 -3.35508
upperneck 8.77533 -0.746004 6.73878
head 2.8113 -0.457916 2.77901
rclavicle 1.39149e-014 -1.98785e-014
rhumerus -51.6428 -45.2812 -51.5654
rradius 10.4797
rwrist 46.5263
rhand -10.8967 -50.8786
rfingers 7.12502
rthumb 15.12 -80.3063
lclavicle 1.39149e-014 -1.98785e-014
lhumerus -38.5235 21.533 66.5035
lradius 10.386
lwrist -23.8723
lhand -21.1573 -13.9892
lfingers 7.12502
lthumb 5.22249 15.9264
rfemur -39.4404 13.2915 15.2601
rtibia 14.7505
rfoot -16.7196 -7.16334
rtoes -24.2645
lfemur -36.8615 -10.7472 -16.108
ltibia 22.4259
lfoot 165.6 195.096
ltoes -46.4994
430
root 11.5948 16.3331 12.133 30.1101 -179.892 359.656
lowerback -24.4882 -0.704579 -6.86438
upperback -2.93479 0.345327 -2.04561
thorax 10.3474 -0.409986 1.70184
lowerneck 0.398418 0.0550746 -3.25283
upperneck 8.77392 -0.789031 6.73626
head 2.80157 -0.478587 2.75764
rclavicle 2.06736e-014 -6.44062e-014
rhumerus -51.8191 -45.3541 -51.6406
rradius 10.5373
rwrist 46.1526
rhand -11.3968 -49.6939
rfingers 7.12502
rthumb 14.6382 -79.1573
lclavicle 2.06736e-014 -6.44062e-014
lhumerus -38.3167 21.0339 67.002
lradius 10.5751
lwrist -23.3872
lhand -21.1422 -13.592
lfingers 7.12502
lthumb 5.2371 16.3233
rfemur -39.3285 13.1803 15.2919
rtibia 14.7029
rfoot -16.7195 -7.22222
rtoes -24.4794
lfemur -36.7435 -10.759 -16.1432
ltibia 22.3222
lfoot 165.657 194.972
ltoes -46.4014
431
root 11.5882 16.3349 12.1273 30.0192 -179.712 359.643
lowerback -24.4016 -0.696041 -6.84282
upperback -2.9712 0.341799 -2.09684
thorax 10.2607 -0.408451 1.63205
lowerneck 0.414602 0.0345524 -3.19116
upperneck 8.78396 -0.821233 6.73698
head 2.80319 -0.493672 2.74571
rclavicle 7.15625e-015 -3.26007e-014
rhumerus -50.8056 -44.3517 -53.432
rradius 10.8028
rwrist 44.1737
rhand -11.3591 -49.7632
rfingers 7.12502
rthumb 14.6746 -79.2239
lclavicle 7.15625e-015 -3.26007e-014
lhumerus -38.1285 20.756 67.3782
lradius 10.7443
lwrist -23.0901
lhand -20.9475 -13.2033
lfingers 7.12502
lthumb 5.42502 16.7073
rfemur -39.1552 13.1294 15.3065
rtibia 14.6689
rfoot -16.7672 -7.37253
rtoes -24.7314
lfemur -36.5343 -10.7426 -16.1955
ltibia 22.1523
lfoot 165.695 194.757
ltoes -46.3723
432
root 11.5831 16.3381 12.1224 29.9572 -179.579 359.611
lowerback -24.4073 -0.741464 -6.92218
upperback -2.94317 0.308642 -2.08319
thorax 10.2974 -0.427026 1.68146
lowerneck 0.397044 0.0299263 -3.15239
upperneck 8.78546 -0.827212 6.72948
head 2.80677 -0.49513 2.73593
rclavicle 5.1684e-015 -3.81667e-014
rhumerus -49.7389 -43.5471 -54.9985
rradius 11.0953
rwrist 42.406
rhand -11.0411 -50.2391
rfingers 7.12502
rthumb 14.9809 -79.6772
lclavicle 5.1684e-015 -3.81667e-014
lhumerus -37.8041 20.3223 68.052
lradius 11.0131
lwrist -22.2908
lhand -20.6681 -13.0852
lfingers 7.12502
lthumb 5.69484 16.8183
rfemur -39.0234 13.1043 15.2777
rtibia 14.6318
rfoot -16.7998 -7.48048
rtoes -24.7297
lfemur -36.3789 -10.7515 -16.2537
ltibia 22.0091
lfoot 165.879 194.731
ltoes -46.9134
